<svg width="212" height="52" xmlns="http://www.w3.org/2000/svg" xmlns:xlink="http://www.w3.org/1999/xlink" xml:space="preserve" overflow="hidden"><g><g><g><g><g><path d="M72.3317 50.2605 72.3317 43.6004 79.6113 43.6004 79.6113 39.8057 72.3317 39.8057 72.3317 35.5463 80.5407 35.5463 80.5407 31.6742 67.6851 31.6742 67.6851 50.2605 72.3317 50.2605ZM95.8744 42.9034C95.8744 38.0245 93.009 35.2365 88.827 35.2365 84.5677 35.2365 81.7023 38.0245 81.7023 42.9034 81.7023 47.8597 84.5677 50.5702 88.827 50.5702 93.009 50.5702 95.8744 47.8597 95.8744 42.9034ZM91.3052 42.9034C91.3052 45.6139 90.5308 47.0853 88.827 47.0853 87.0459 47.0853 86.2714 45.6139 86.2714 42.9034 86.2714 40.2703 87.0459 38.7215 88.827 38.7215 90.5308 38.7215 91.3052 40.2703 91.3052 42.9034ZM107.413 50.2605 111.363 50.2605 111.363 35.6238 106.794 35.6238 106.794 43.6778C106.794 45.8462 105.787 46.7755 104.548 46.7755 103.309 46.7755 102.689 46.0011 102.689 44.5297L102.689 35.6238 98.1202 35.6238 98.1202 45.8462C98.1202 49.0214 100.134 50.5702 102.534 50.5702 104.703 50.5702 106.252 49.5635 106.871 47.6274L107.413 50.2605ZM118.333 35.6238 114.383 35.6238 114.383 50.2605 119.03 50.2605 119.03 42.3613C119.03 40.1154 120.114 39.2636 121.353 39.2636 122.67 39.2636 123.212 40.1154 123.212 41.5094L123.212 50.2605 127.781 50.2605 127.781 40.038C127.781 36.8628 125.922 35.2365 123.367 35.2365 121.276 35.2365 119.572 36.3982 118.875 38.4117L118.333 35.6238ZM139.862 43.5229C139.862 45.7688 138.778 46.9304 137.384 46.9304 135.835 46.9304 134.828 45.5364 134.828 43.0583 134.828 40.1929 135.835 38.7215 137.461 38.7215 138.7 38.7215 139.862 39.7282 139.862 41.7417L139.862 43.5229ZM140.559 50.2605 144.509 50.2605 144.509 29.3509 139.862 29.3509 139.862 37.4824C139.397 36.1659 138.003 35.2365 135.99 35.2365 132.505 35.2365 130.104 38.1019 130.104 43.2906 130.104 47.9372 132.582 50.5702 135.757 50.5702 137.771 50.5702 139.397 49.5635 140.017 47.55L140.559 50.2605ZM159.3 40.1929C159.3 37.0952 157.519 35.2365 153.492 35.2365 149.93 35.2365 147.684 37.0952 147.451 40.038L151.633 40.6575C151.633 39.341 152.253 38.644 153.337 38.644 154.344 38.644 154.886 39.2636 154.886 40.3478L154.886 41.8192C154.421 41.8192 153.724 41.7417 153.105 41.7417 149.155 41.7417 146.754 43.368 146.754 46.3109 146.754 48.9439 148.536 50.5702 151.169 50.5702 153.027 50.5702 154.654 49.6409 155.273 48.2469 155.351 48.6342 155.505 48.9439 155.738 49.1763 156.357 50.0281 157.364 50.5702 158.603 50.5702 159.532 50.5702 160.539 50.2605 161.159 49.7958L161.004 46.6981C160.772 46.9304 160.539 47.0079 160.229 47.0079 159.687 47.0079 159.3 46.7755 159.3 46.0011L159.3 40.1929ZM154.886 45.0718C154.886 46.7755 153.802 47.4725 152.795 47.4725 151.788 47.4725 151.169 46.853 151.169 45.9237 151.169 44.762 152.098 44.1425 153.957 44.1425 154.266 44.1425 154.654 44.1425 154.886 44.1425L154.886 45.0718ZM171.614 46.0011C170.917 46.5432 170.22 46.7755 169.523 46.7755 168.516 46.7755 167.896 46.2334 167.896 44.9943L167.896 39.1087 171.614 39.1087 171.614 35.6238 167.974 35.6238 167.974 31.9839 163.327 32.526 163.327 35.6238 161.546 35.6238 161.546 39.1087 163.327 39.1087 163.327 45.6913C163.327 49.0988 165.418 50.5702 168.361 50.5702 169.832 50.5702 171.226 50.183 172.233 49.4086L171.614 46.0011ZM179.203 30.9772C179.203 29.3509 177.886 28.4216 176.492 28.4216 175.098 28.4216 173.859 29.3509 173.859 30.9772 173.859 32.6035 175.098 33.5328 176.492 33.5328 177.886 33.5328 179.203 32.6035 179.203 30.9772ZM174.247 35.6238 174.247 50.2605 178.816 50.2605 178.816 35.6238 174.247 35.6238ZM195.156 42.9034C195.156 38.0245 192.368 35.2365 188.109 35.2365 183.927 35.2365 181.062 38.0245 181.062 42.9034 181.062 47.8597 183.927 50.5702 188.109 50.5702 192.368 50.5702 195.156 47.8597 195.156 42.9034ZM190.665 42.9034C190.665 45.6139 189.89 47.0853 188.109 47.0853 186.405 47.0853 185.631 45.6139 185.631 42.9034 185.631 40.2703 186.405 38.7215 188.109 38.7215 189.89 38.7215 190.665 40.2703 190.665 42.9034ZM201.507 35.6238 197.557 35.6238 197.557 50.2605 202.126 50.2605 202.126 42.3613C202.126 40.1154 203.21 39.2636 204.527 39.2636 205.843 39.2636 206.308 40.1154 206.308 41.5094L206.308 50.2605 210.955 50.2605 210.955 40.038C210.955 36.8628 209.096 35.2365 206.54 35.2365 204.449 35.2365 202.746 36.3982 202.049 38.4117L201.507 35.6238Z" fill="#B2B3B3" fill-rule="nonzero" fill-opacity="1" transform="matrix(1 0 0 1.00389 0.0227166 -9.81437e-16)"/><path d="M10.145 40.735C12.0811 40.4252 13.4751 38.8764 13.4751 36.5531 13.4751 33.4553 11.3067 31.6742 7.58941 31.6742L0.154886 31.6742 0.154886 50.2605 7.74429 50.2605C12.0811 50.2605 14.1721 48.1695 14.1721 45.0718 14.1721 42.5936 12.5458 41.1222 10.145 40.8124L10.145 40.735ZM3.56238 34.3847 6.96986 34.3847C8.90594 34.3847 9.99014 35.314 9.99014 37.0952 9.99014 38.8764 8.8285 39.8057 6.89242 39.8057L3.56238 39.8057 3.56238 34.3847ZM3.56238 42.2064 7.27964 42.2064C9.44804 42.2064 10.6097 43.1357 10.6097 44.9169 10.6097 46.6206 9.44804 47.55 7.27964 47.55L3.56238 47.55 3.56238 42.2064ZM22.7682 47.8597C20.7547 47.8597 19.5156 46.3109 19.4382 43.6004L28.2667 43.6004C28.4216 43.2132 28.499 42.4387 28.499 41.6643 28.499 38.1019 26.5629 35.3914 22.7682 35.3914 18.6637 35.3914 16.1081 38.3343 16.1081 43.0583 16.1081 47.8597 18.6637 50.5702 22.6908 50.5702 25.3238 50.5702 27.6471 49.4086 28.4216 46.5432L25.5562 45.6139C25.169 47.2402 24.1622 47.8597 22.7682 47.8597ZM19.4382 41.6643C19.6705 39.341 20.8321 37.947 22.6908 37.947 24.3945 37.947 25.2464 39.2636 25.2464 40.8899 25.2464 41.1222 25.2464 41.432 25.2464 41.6643L19.4382 41.6643ZM34.7719 35.7012 31.9065 35.7012 31.9065 50.2605 35.314 50.2605 35.314 42.129C35.314 39.4185 36.708 38.3343 38.3343 38.3343 39.9606 38.3343 40.6575 39.4185 40.6575 41.0448L40.6575 50.2605 44.065 50.2605 44.065 40.038C44.065 37.0177 42.2838 35.3914 39.7282 35.3914 37.5598 35.3914 35.8561 36.4756 35.1591 38.4891L34.7719 35.7012ZM57.8499 37.947 57.8499 35.7012 47.0079 35.7012 47.0079 38.4117 53.668 38.4117 46.9304 48.0146 46.9304 50.2605 58.0822 50.2605 58.0822 47.4725 51.0349 47.4725 57.8499 37.947Z" fill="#00657F" fill-rule="nonzero" fill-opacity="1" transform="matrix(1 0 0 1.00389 0.0227166 -9.81437e-16)"/><path d="M10.145 40.735C12.0811 40.4252 13.4751 38.8764 13.4751 36.5531 13.4751 33.4553 11.3067 31.6742 7.58941 31.6742L0.154886 31.6742 0.154886 50.2605 7.74429 50.2605C12.0811 50.2605 14.1721 48.1695 14.1721 45.0718 14.1721 42.5936 12.5458 41.1222 10.145 40.8124L10.145 40.735ZM3.56238 34.3847 6.96986 34.3847C8.90594 34.3847 9.99014 35.314 9.99014 37.0952 9.99014 38.8764 8.8285 39.8057 6.89242 39.8057L3.56238 39.8057 3.56238 34.3847ZM3.56238 42.2064 7.27964 42.2064C9.44804 42.2064 10.6097 43.1357 10.6097 44.9169 10.6097 46.6206 9.44804 47.55 7.27964 47.55L3.56238 47.55 3.56238 42.2064ZM22.7682 47.8597C20.7547 47.8597 19.5156 46.3109 19.4382 43.6004L28.2667 43.6004C28.4216 43.2132 28.499 42.4387 28.499 41.6643 28.499 38.1019 26.5629 35.3914 22.7682 35.3914 18.6637 35.3914 16.1081 38.3343 16.1081 43.0583 16.1081 47.8597 18.6637 50.5702 22.6908 50.5702 25.3238 50.5702 27.6471 49.4086 28.4216 46.5432L25.5562 45.6139C25.169 47.2402 24.1622 47.8597 22.7682 47.8597ZM19.4382 41.6643C19.6705 39.341 20.8321 37.947 22.6908 37.947 24.3945 37.947 25.2464 39.2636 25.2464 40.8899 25.2464 41.1222 25.2464 41.432 25.2464 41.6643L19.4382 41.6643ZM34.7719 35.7012 31.9065 35.7012 31.9065 50.2605 35.314 50.2605 35.314 42.129C35.314 39.4185 36.708 38.3343 38.3343 38.3343 39.9606 38.3343 40.6575 39.4185 40.6575 41.0448L40.6575 50.2605 44.065 50.2605 44.065 40.038C44.065 37.0177 42.2838 35.3914 39.7282 35.3914 37.5598 35.3914 35.8561 36.4756 35.1591 38.4891L34.7719 35.7012ZM57.8499 37.947 57.8499 35.7012 47.0079 35.7012 47.0079 38.4117 53.668 38.4117 46.9304 48.0146 46.9304 50.2605 58.0822 50.2605 58.0822 47.4725 51.0349 47.4725 57.8499 37.947Z" stroke="#00657F" stroke-width="0.359887" stroke-linecap="butt" stroke-linejoin="miter" stroke-miterlimit="4" stroke-opacity="1" fill="none" fill-rule="nonzero" transform="matrix(1 0 0 1.00389 0.0227166 -9.81437e-16)"/><path d="M114.383 16.1856C114.383 18.9735 112.679 20.1352 110.898 20.1352 109.272 20.1352 108.343 19.2058 108.343 17.8119 108.343 15.7984 109.969 14.9465 113.067 14.9465 113.531 14.9465 113.996 14.9465 114.383 15.0239L114.383 16.1856ZM116.474 11.3067C116.474 8.20895 114.693 6.81498 111.75 6.81498 109.117 6.81498 106.949 8.28639 106.639 10.9195L108.885 11.3841C108.962 9.75781 109.814 8.75105 111.595 8.75105 113.454 8.75105 114.383 9.83525 114.383 11.539L114.383 13.2427C113.841 13.2427 113.376 13.1653 113.067 13.1653 108.343 13.1653 106.097 15.0239 106.097 17.8893 106.097 20.4449 107.955 21.9164 110.356 21.9164 112.137 21.9164 113.841 21.0645 114.383 19.5156 114.538 19.9028 114.616 20.29 114.77 20.5998 115.235 21.4517 115.932 21.9164 117.016 21.9164 117.481 21.9164 118.178 21.7615 118.565 21.5291L118.41 19.7479C118.178 19.9028 117.868 20.0577 117.558 20.0577 116.861 20.0577 116.474 19.7479 116.474 18.8186L116.474 11.3067ZM122.825 7.20219 121.121 7.20219 121.121 21.6066 123.444 21.6066 123.444 13.2427C123.444 10.0676 125.07 8.90594 127.084 8.90594 128.942 8.90594 129.794 10.145 129.794 12.0037L129.794 21.6066 132.04 21.6066 132.04 11.4616C132.04 8.51872 130.336 6.81498 127.781 6.81498 125.612 6.81498 123.909 7.97662 123.134 9.99014L122.825 7.20219ZM145.206 15.4886C145.206 18.8186 143.269 20.0577 141.488 20.0577 139.088 20.0577 137.616 18.1991 137.616 14.5593 137.616 10.4548 139.32 8.67361 141.566 8.67361 143.192 8.67361 145.206 9.83525 145.206 12.7781L145.206 15.4886ZM145.67 21.6066 147.529 21.6066 147.529 0.774429 145.206 0.774429 145.206 9.13827C144.741 7.97662 143.424 6.81498 141.178 6.81498 137.539 6.81498 135.293 9.68037 135.293 14.6367 135.293 19.5931 137.926 21.9938 140.946 21.9938 142.96 21.9938 144.741 21.0645 145.438 18.8961L145.67 21.6066Z" fill="#00657F" fill-rule="nonzero" fill-opacity="1" transform="matrix(1 0 0 1.00389 0.0227166 -9.81437e-16)"/><path d="M0.154886 21.6066 6.42776 21.6066C11.8488 21.6066 15.7984 18.6637 15.7984 12.3134 15.7984 5.88566 11.8488 3.02027 6.42776 3.02027L0.154886 3.02027 0.154886 21.6066ZM3.71726 5.96311 6.35032 5.96311C9.44804 5.96311 12.1585 7.51196 12.1585 12.3134 12.1585 17.0374 9.44804 18.6637 6.35032 18.6637L3.71726 18.6637 3.71726 5.96311ZM29.3509 11.3841C29.3509 8.36384 27.4922 6.73754 24.0073 6.73754 20.9096 6.73754 18.7412 8.36384 18.4314 11.1518L21.684 11.6939C21.684 10.2225 22.4585 9.37059 23.8524 9.37059 25.3238 9.37059 26.0208 10.2225 26.0208 11.6164L26.0208 13.2427C25.5562 13.1653 24.9366 13.1653 24.5494 13.1653 20.1352 13.1653 17.8119 14.869 17.8119 17.8119 17.8119 20.4449 19.6705 21.9164 22.2261 21.9164 24.0073 21.9164 25.7111 21.0645 26.2532 19.5156 26.3306 19.9803 26.4855 20.29 26.6404 20.5998 27.1825 21.4517 28.0343 21.9164 29.2734 21.9164 29.9704 21.9164 30.7448 21.684 31.2095 21.3743L31.1321 18.8961C30.8997 19.1284 30.59 19.2058 30.2802 19.2058 29.7381 19.2058 29.3509 18.8961 29.3509 18.1216L29.3509 11.3841ZM26.0208 16.3405C26.0208 18.5863 24.6269 19.5156 23.2329 19.5156 21.9164 19.5156 21.1419 18.7412 21.1419 17.5795 21.1419 15.9532 22.4585 15.1788 24.9366 15.1788 25.3238 15.1788 25.7111 15.2563 26.0208 15.2563L26.0208 16.3405ZM37.7147 2.32329C37.7147 1.00676 36.708 0.154886 35.5463 0.154886 34.3847 0.154886 33.4553 1.00676 33.4553 2.32329 33.4553 3.63982 34.3847 4.49169 35.5463 4.49169 36.708 4.49169 37.7147 3.63982 37.7147 2.32329ZM33.8426 7.04731 33.8426 21.6066 37.2501 21.6066 37.2501 7.04731 33.8426 7.04731ZM53.1259 9.83525C52.5838 7.82174 51.0349 6.73754 49.0214 6.73754 47.0853 6.73754 45.3816 7.82174 44.762 9.9127L44.3748 7.04731 41.5869 7.04731 41.5869 21.6066 44.9943 21.6066 44.9943 13.4751C44.9943 10.842 46.2334 9.75781 47.7048 9.75781 49.3312 9.75781 49.9507 10.7646 49.9507 12.3909L49.9507 21.6066 53.3582 21.6066 53.3582 13.4751C53.3582 10.7646 54.6747 9.75781 56.1461 9.75781 57.7724 9.75781 58.392 10.7646 58.392 12.3909L58.392 21.6066 61.7995 21.6066 61.7995 11.3067C61.7995 8.28639 60.0183 6.73754 57.4627 6.73754 55.4491 6.73754 53.9003 7.89918 53.1259 9.83525ZM71.3249 18.7412C70.9377 18.9735 70.5505 19.051 70.1633 19.051 69.3889 19.051 69.0017 18.6637 69.0017 17.8119L69.0017 0.774429 65.5942 0.774429 65.5942 18.4314C65.5942 20.987 67.143 21.9164 69.0017 21.9164 70.0084 21.9164 70.9377 21.684 71.5573 21.2968L71.3249 18.7412ZM79.9211 19.2833C77.9076 19.2833 76.6685 17.657 76.5911 14.9465L85.4196 14.9465C85.5744 14.5593 85.7293 13.7848 85.7293 13.0104 85.7293 9.52548 83.7158 6.73754 79.9211 6.73754 75.8941 6.73754 73.261 9.68037 73.261 14.4818 73.261 19.2833 75.8941 21.9938 79.9211 21.9938 82.4767 21.9938 84.8 20.7547 85.5744 17.9668L82.7091 16.96C82.3218 18.5863 81.3151 19.2833 79.9211 19.2833ZM76.6685 13.0104C76.8234 10.6871 78.0625 9.29315 79.8437 9.29315 81.5474 9.29315 82.4767 10.6871 82.4767 12.3134 82.4767 12.4683 82.4767 12.7781 82.3993 13.0104L76.6685 13.0104ZM97.4232 6.81498C94.7902 6.35032 92.8541 8.05407 92.2345 10.6097L91.8473 7.04731 88.9819 7.04731 88.9819 21.6066 92.3894 21.6066 92.3894 14.5593C92.3894 11.7713 93.8608 10.2999 95.7969 10.2999 96.339 10.2999 96.8811 10.3774 97.2683 10.4548L97.4232 6.81498Z" fill="#00657F" fill-rule="nonzero" fill-opacity="1" transform="matrix(1 0 0 1.00389 0.0227166 -9.81437e-16)"/><path d="M0.154886 21.6066 6.42776 21.6066C11.8488 21.6066 15.7984 18.6637 15.7984 12.3134 15.7984 5.88566 11.8488 3.02027 6.42776 3.02027L0.154886 3.02027 0.154886 21.6066ZM3.71726 5.96311 6.35032 5.96311C9.44804 5.96311 12.1585 7.51196 12.1585 12.3134 12.1585 17.0374 9.44804 18.6637 6.35032 18.6637L3.71726 18.6637 3.71726 5.96311ZM29.3509 11.3841C29.3509 8.36384 27.4922 6.73754 24.0073 6.73754 20.9096 6.73754 18.7412 8.36384 18.4314 11.1518L21.684 11.6939C21.684 10.2225 22.4585 9.37059 23.8524 9.37059 25.3238 9.37059 26.0208 10.2225 26.0208 11.6164L26.0208 13.2427C25.5562 13.1653 24.9366 13.1653 24.5494 13.1653 20.1352 13.1653 17.8119 14.869 17.8119 17.8119 17.8119 20.4449 19.6705 21.9164 22.2261 21.9164 24.0073 21.9164 25.7111 21.0645 26.2532 19.5156 26.3306 19.9803 26.4855 20.29 26.6404 20.5998 27.1825 21.4517 28.0343 21.9164 29.2734 21.9164 29.9704 21.9164 30.7448 21.684 31.2095 21.3743L31.1321 18.8961C30.8997 19.1284 30.59 19.2058 30.2802 19.2058 29.7381 19.2058 29.3509 18.8961 29.3509 18.1216L29.3509 11.3841ZM26.0208 16.3405C26.0208 18.5863 24.6269 19.5156 23.2329 19.5156 21.9164 19.5156 21.1419 18.7412 21.1419 17.5795 21.1419 15.9532 22.4585 15.1788 24.9366 15.1788 25.3238 15.1788 25.7111 15.2563 26.0208 15.2563L26.0208 16.3405ZM37.7147 2.32329C37.7147 1.00676 36.708 0.154886 35.5463 0.154886 34.3847 0.154886 33.4553 1.00676 33.4553 2.32329 33.4553 3.63982 34.3847 4.49169 35.5463 4.49169 36.708 4.49169 37.7147 3.63982 37.7147 2.32329ZM33.8426 7.04731 33.8426 21.6066 37.2501 21.6066 37.2501 7.04731 33.8426 7.04731ZM53.1259 9.83525C52.5838 7.82174 51.0349 6.73754 49.0214 6.73754 47.0853 6.73754 45.3816 7.82174 44.762 9.9127L44.3748 7.04731 41.5869 7.04731 41.5869 21.6066 44.9943 21.6066 44.9943 13.4751C44.9943 10.842 46.2334 9.75781 47.7048 9.75781 49.3312 9.75781 49.9507 10.7646 49.9507 12.3909L49.9507 21.6066 53.3582 21.6066 53.3582 13.4751C53.3582 10.7646 54.6747 9.75781 56.1461 9.75781 57.7724 9.75781 58.392 10.7646 58.392 12.3909L58.392 21.6066 61.7995 21.6066 61.7995 11.3067C61.7995 8.28639 60.0183 6.73754 57.4627 6.73754 55.4491 6.73754 53.9003 7.89918 53.1259 9.83525ZM71.3249 18.7412C70.9377 18.9735 70.5505 19.051 70.1633 19.051 69.3889 19.051 69.0017 18.6637 69.0017 17.8119L69.0017 0.774429 65.5942 0.774429 65.5942 18.4314C65.5942 20.987 67.143 21.9164 69.0017 21.9164 70.0084 21.9164 70.9377 21.684 71.5573 21.2968L71.3249 18.7412ZM79.9211 19.2833C77.9076 19.2833 76.6685 17.657 76.5911 14.9465L85.4196 14.9465C85.5744 14.5593 85.7293 13.7848 85.7293 13.0104 85.7293 9.52548 83.7158 6.73754 79.9211 6.73754 75.8941 6.73754 73.261 9.68037 73.261 14.4818 73.261 19.2833 75.8941 21.9938 79.9211 21.9938 82.4767 21.9938 84.8 20.7547 85.5744 17.9668L82.7091 16.96C82.3218 18.5863 81.3151 19.2833 79.9211 19.2833ZM76.6685 13.0104C76.8234 10.6871 78.0625 9.29315 79.8437 9.29315 81.5474 9.29315 82.4767 10.6871 82.4767 12.3134 82.4767 12.4683 82.4767 12.7781 82.3993 13.0104L76.6685 13.0104ZM97.4232 6.81498C94.7902 6.35032 92.8541 8.05407 92.2345 10.6097L91.8473 7.04731 88.9819 7.04731 88.9819 21.6066 92.3894 21.6066 92.3894 14.5593C92.3894 11.7713 93.8608 10.2999 95.7969 10.2999 96.339 10.2999 96.8811 10.3774 97.2683 10.4548L97.4232 6.81498Z" stroke="#00657F" stroke-width="0.359887" stroke-linecap="butt" stroke-linejoin="miter" stroke-miterlimit="4" stroke-opacity="1" fill="none" fill-rule="nonzero" transform="matrix(1 0 0 1.00389 0.0227166 -9.81437e-16)"/></g></g></g></g></g></svg>